<svg width="49" height="49" viewBox="0 0 49 49" fill="none" xmlns="http://www.w3.org/2000/svg">
<path fill-rule="evenodd" clip-rule="evenodd" d="M10.2673 27.9109L10.2673 46.4723C10.2673 47.391 9.55304 48.1374 8.57096 48.1374L1.60706 48.1374C0.714249 48.1374 3.87995e-06 47.391 3.96027e-06 46.4723L7.87752e-06 1.66417C7.95784e-06 0.745472 0.714253 1.11142e-05 1.60706 1.11923e-05L8.57096 1.18011e-05C9.55305 1.1887e-05 10.2673 0.745472 10.2673 1.66417L10.2673 20.2257L44.194 0.629425C44.9975 0.167843 45.9796 0.167843 46.7831 0.629425C47.5866 1.09101 48.1223 1.9436 48.1223 2.86676C48.1223 12.5876 48.1223 35.5488 48.1223 45.2706C48.1223 46.1929 47.5866 47.0455 46.7831 47.5071C45.9796 47.9687 44.9975 47.9687 44.194 47.508L10.2673 27.9109Z" fill="black"/>
</svg>
