<svg width="57" height="52" viewBox="0 0 57 52" fill="none" xmlns="http://www.w3.org/2000/svg">
<path d="M42.9424 0C50.2614 0.000235768 56.2061 5.65368 56.2061 12.6133V31.0781C56.2061 38.0377 50.2614 43.7 42.9424 43.7002H31.6436L34.7266 46.6309C35.8144 47.6653 35.8143 49.3445 34.7266 50.3789C33.6482 51.4043 31.8818 51.4043 30.7939 50.3789L21.1846 41.2412L30.7939 32.1035C31.8818 31.0691 33.6482 31.0691 34.7266 32.1035C35.8143 33.1378 35.8141 34.8073 34.7266 35.8418L31.6436 38.7822H42.9424C47.4081 38.782 51.0439 35.3246 51.0439 31.0781V12.6133C51.0439 8.3668 47.4081 4.90942 42.9424 4.90918H13.2744C8.79891 4.90918 5.17285 8.36665 5.17285 12.6133V31.0781C5.17285 35.3248 8.79891 38.7822 13.2744 38.7822H15.9082V43.7002H13.2744C5.94566 43.7002 0 38.0379 0 31.0781V12.6133C0 5.65353 5.94566 0 13.2744 0H42.9424Z" fill="black"/>
</svg>
