<svg width="57" height="55" viewBox="0 0 57 55" fill="none" xmlns="http://www.w3.org/2000/svg">
<path d="M42.9424 3.82358C50.2614 3.82381 56.2061 9.47725 56.2061 16.4369V34.9017C56.2061 41.8613 50.2614 47.5235 42.9424 47.5238H31.6436L34.7266 50.4544C35.8144 51.4888 35.8143 53.168 34.7266 54.2025C33.6482 55.2278 31.8818 55.2278 30.7939 54.2025L21.1846 45.0648L30.7939 35.9271C31.8818 34.8927 33.6482 34.8927 34.7266 35.9271C35.8143 36.9614 35.8141 38.6309 34.7266 39.6654L31.6436 42.6058H42.9424C47.4081 42.6056 51.0439 39.1482 51.0439 34.9017V16.4369C51.0439 12.1904 47.4081 8.73299 42.9424 8.73276H39.084V3.82358H42.9424ZM18.084 8.73276H13.2744C8.79891 8.73276 5.17285 12.1902 5.17285 16.4369V34.9017C5.17285 39.1483 8.79891 42.6058 13.2744 42.6058H15.9082V47.5238H13.2744C5.94566 47.5238 0 41.8615 0 34.9017V16.4369C0 9.47711 5.94566 3.82358 13.2744 3.82358H18.084V8.73276Z" fill="black"/>
<path d="M34.5013 1.90735e-06V29.0909H29.2314V5.12784H29.061L22.257 9.47443V4.64489L29.4871 1.90735e-06H34.5013Z" fill="black"/>
</svg>
